<svg width="24" height="24" viewBox="0 0 24 24" fill="#2A3B8F" xmlns="http://www.w3.org/2000/svg">
<g clip-path="url(#clip0_1297_7001)">
<path d="M17.0147 17.8066C15.306 17.8066 13.918 19.1947 13.918 20.9034C13.918 22.6122 15.306 24.0002 17.0147 24.0002C18.7235 24.0002 20.1115 22.6122 20.1115 20.9034C20.1115 19.1947 18.7235 17.8066 17.0147 17.8066ZM17.0147 22.12C16.3456 22.12 15.7982 21.5725 15.7982 20.9034C15.7982 20.2343 16.3456 19.6868 17.0147 19.6868C17.6839 19.6868 18.2313 20.2343 18.2313 20.9034C18.2313 21.5725 17.6894 22.12 17.0147 22.12Z" />
<path d="M0.686186 1.88018H1.99125C2.68803 1.88018 3.25208 2.44977 3.25208 3.15207V13.7806C3.25208 15.5171 4.67328 16.9217 6.41522 16.9217H19.0512C19.571 16.9217 19.9913 16.5014 19.9913 15.9816C19.9913 15.4618 19.571 15.0415 19.0512 15.0415H6.41522C5.71291 15.0415 5.13227 14.483 5.13227 13.7806V13.7198L17.7129 13.6479C19.665 13.6369 21.3572 12.3041 21.8272 10.4074L23.5415 3.45069C23.6134 3.16866 23.547 2.86452 23.3701 2.63779C23.1931 2.41106 22.9221 2.27281 22.6346 2.27281H22.629L5.04932 2.36682C4.6954 1.00092 3.45669 0 1.99125 0H0.686186C0.16637 0 -0.253906 0.420277 -0.253906 0.940092C-0.253906 1.45991 0.16637 1.88018 0.686186 1.88018ZM5.13227 4.25253L21.4235 4.16959L20.0023 9.95392C19.7424 11.0101 18.7913 11.7567 17.7019 11.7622L5.13227 11.8396V4.25253Z"/>
<path d="M3.83984 20.9034C3.83984 22.6122 5.22786 24.0002 6.93662 24.0002C8.64537 24.0002 10.0334 22.6122 10.0334 20.9034C10.0334 19.1947 8.64537 17.8066 6.93662 17.8066C5.22786 17.8066 3.83984 19.1947 3.83984 20.9034ZM8.15321 20.9034C8.15321 21.5725 7.60574 22.12 6.93662 22.12C6.26749 22.12 5.72003 21.5725 5.72003 20.9034C5.72003 20.2343 6.26749 19.6868 6.93662 19.6868C7.60574 19.6868 8.15321 20.2343 8.15321 20.9034Z" />
</g>
<defs>
<clipPath id="clip0_1297_7001">
<rect width="24" height="24" fill="white"/>
</clipPath>
</defs>
</svg>
