<svg width="18" height="18" viewBox="0 0 18 18" fill="none" xmlns="http://www.w3.org/2000/svg">
<path d="M16.4163 5.6214L16.416 5.6217L5.0042 17.0334C5.00418 17.0335 5.00416 17.0335 5.00414 17.0335C4.93554 17.1021 4.85409 17.1566 4.76444 17.1937C4.67478 17.2309 4.57868 17.25 4.48161 17.25C4.4816 17.25 4.48159 17.25 4.48157 17.25H1.54775H1.5476V17C1.48337 17 1.41977 16.9874 1.36042 16.9629C1.30107 16.9383 1.24715 16.9023 1.20174 16.8569L16.4163 5.6214ZM16.4163 5.6214C16.9506 5.08531 17.2502 4.35902 17.2493 3.60212C17.2485 2.84535 16.9472 2.11989 16.4118 1.58507C16.1475 1.31952 15.8332 1.10899 15.4871 0.96566M16.4163 5.6214L15.4871 0.96566M1.02496 17.0336C1.02496 17.0336 1.02496 17.0336 1.02496 17.0336L1.02496 17.0336ZM1.02496 17.0336C0.956313 16.965 0.90187 16.8835 0.864744 16.7938C0.827636 16.7041 0.808557 16.608 0.808594 16.511C0.808594 16.511 0.808594 16.511 0.808594 16.5109L1.02496 17.0336ZM13.4199 2.63462L13.4193 2.6352L12.8073 3.25348L14.7507 5.19693L15.3707 4.57689L13.4199 2.63462ZM13.4199 2.63462C13.5466 2.50574 13.6978 2.40341 13.8645 2.33359C14.0312 2.26377 14.2102 2.22786 14.3909 2.22797L14.3982 2.22797M13.4199 2.63462L14.3982 2.22797M14.3982 2.22797L14.4055 2.22755M14.3982 2.22797L14.4055 2.22755M14.4055 2.22755C14.5844 2.21719 14.7632 2.24743 14.9286 2.31601C15.0941 2.3846 15.2419 2.48974 15.3609 2.62357L15.3656 2.62889M14.4055 2.22755L15.3656 2.62889M15.3656 2.62889L15.3707 2.63393M15.3656 2.62889L15.3707 2.63393M15.3707 2.63393C15.6278 2.89185 15.7722 3.2412 15.7722 3.60541M15.3707 2.63393L15.7722 3.60541M15.4871 0.96566C15.1409 0.82232 14.7697 0.749024 14.3951 0.75001M15.4871 0.96566L14.3951 0.75001M14.3951 0.75001H14.3954V1.00001C14.7371 0.999068 15.0757 1.0659 15.3914 1.19664L14.3951 0.75001ZM14.3951 0.75001H14.3887C14.3887 0.75001 14.3887 0.75001 14.3887 0.75001C14.0127 0.74995 13.6404 0.824698 13.2935 0.969902C12.9467 1.11507 12.6322 1.32777 12.3684 1.59561C12.3684 1.59568 12.3683 1.59575 12.3682 1.59582L1.02247 13.0571L14.3951 0.75001ZM15.7722 3.60541C15.7722 3.96953 15.628 4.31877 15.371 4.57663L15.7722 3.60541ZM13.7057 6.24194L4.17561 15.772H2.2866V13.8808L11.7675 4.30376L13.7057 6.24194Z" fill="#2A3B8F" stroke="#2A3B8F" stroke-width="0.5"/>
</svg>
