<svg width="24" height="24" viewBox="0 0 24 24" fill="none" xmlns="http://www.w3.org/2000/svg">
<g clip-path="url(#clip0_1297_6992)">
<path d="M11.9984 2.34192C11.8186 2.34514 11.6361 2.40919 11.4588 2.52485L0.33685 11.3053C0.0511457 11.589 -0.149701 12.1998 0.144778 12.5766C0.439253 12.9535 1.05859 13.004 1.41611 12.6864L11.9984 4.33582L22.5807 12.6864C22.9382 13.004 23.5706 12.9633 23.852 12.5766C24.0989 12.2373 24.0382 11.5881 23.6599 11.3053L12.538 2.52485C12.3551 2.39633 12.1782 2.33871 11.9984 2.34192ZM4.97403 8.91201L3.21794 10.3022V20.7809C3.21796 21.0137 3.31047 21.2371 3.47513 21.4017C3.6398 21.5664 3.86312 21.6589 4.09598 21.6589H9.65693C9.8898 21.6589 10.1131 21.5664 10.2778 21.4017C10.4424 21.2371 10.535 21.0137 10.535 20.7809V17.2687C10.535 16.4428 11.1725 15.8053 11.9984 15.8053C12.8243 15.8053 13.4618 16.4428 13.4618 17.2687V20.7809C13.4618 21.0137 13.5543 21.2371 13.719 21.4017C13.8837 21.5664 14.107 21.6589 14.3398 21.6589H19.9008C20.1337 21.6589 20.357 21.5664 20.5216 21.4017C20.6863 21.2371 20.7788 21.0137 20.7788 20.7809V10.3022L19.0227 8.91201V19.9028H15.2179V17.2687C15.2179 15.5003 13.7668 14.0492 11.9984 14.0492C10.23 14.0492 8.77889 15.5003 8.77889 17.2687V19.9028H4.97403V8.91201Z" fill="#000"/>
</g>
<defs>
<clipPath id="clip0_1297_6992">
<rect width="24" height="24" fill="white"/>
</clipPath>
</defs>
</svg>
