<svg width="25" height="24" viewBox="0 0 25 24" fill="#2A3B8F" xmlns="http://www.w3.org/2000/svg">
<g clip-path="url(#clip0_1297_6997)">
<path fill-rule="evenodd" clip-rule="evenodd" d="M2.86944 -0.0897464C1.78106 -0.0897464 0.898438 0.792873 0.898438 1.88126V21.9392C0.898438 23.0275 1.78106 23.9102 2.86944 23.9102H17.2697C17.4843 23.9102 17.6913 23.8759 17.8844 23.8124C18.0025 23.8619 18.1307 23.8886 18.2666 23.8886H22.6963C23.2399 23.8886 23.6818 23.4479 23.6818 22.9031V11.7374C23.6818 11.1938 23.2398 10.7519 22.6963 10.7519H19.2407V1.88116C19.2407 0.792775 18.3581 -0.0898438 17.2697 -0.0898438L2.86944 -0.0897464ZM2.86944 1.88126H17.2697V21.9392H2.86944V1.88126ZM5.60114 4.88222C5.05759 4.88222 4.61693 5.32291 4.61693 5.86644C4.61693 6.41126 5.05762 6.85192 5.60114 6.85192H10.0549C10.5997 6.85192 11.0404 6.41123 11.0404 5.86644C11.0404 5.32288 10.5997 4.88222 10.0549 4.88222H5.60114ZM4.57372 10.1881C4.57372 9.64325 5.01568 9.20259 5.5592 9.20259H15.1029C15.6477 9.20259 16.0884 9.64328 16.0884 10.1881C16.0884 10.7316 15.6477 11.1723 15.1029 11.1723H5.5592C5.01565 11.1723 4.57372 10.7316 4.57372 10.1881ZM19.252 21.9188V12.7229H21.7106V21.9188H19.252Z"/>
</g>
<defs>
<clipPath id="clip0_1297_6997">
<rect width="24" height="24" fill="white" transform="translate(0.5)"/>
</clipPath>
</defs>
</svg>
