<svg width="27" height="26" viewBox="0 0 27 26" fill="none" xmlns="http://www.w3.org/2000/svg">
<g clip-path="url(#clip0_1297_7008)">
<path fill-rule="evenodd" clip-rule="evenodd" d="M8.36496 5.55717C8.36496 8.64639 10.8858 11.1652 13.976 11.1668C17.0664 11.1668 19.5873 8.6462 19.5873 5.55717C19.5873 2.4678 17.0662 -0.0478516 13.9761 -0.0478516C10.8859 -0.0478516 8.36496 2.46947 8.36496 5.55717ZM13.9761 1.89607C16.0112 1.89607 17.6449 3.52904 17.6449 5.55871C17.6449 7.58849 16.011 9.223 13.9759 9.22442C11.9412 9.22431 10.3073 7.59011 10.3073 5.55871C10.3073 3.52889 11.941 1.89607 13.9761 1.89607Z" fill="#000"/>
<path fill-rule="evenodd" clip-rule="evenodd" d="M14.0485 12.001L14.0408 12.001C8.33822 12.001 3.70462 16.6477 3.70462 22.3608V23.4544L3.70312 23.4559V23.5802C3.70312 24.1164 4.13892 24.5521 4.67508 24.5521H23.2784C23.8145 24.5521 24.2503 24.1164 24.2503 23.5802V22.3617C24.2854 16.6864 19.7131 12.0393 14.0485 12.001ZM5.64565 22.3607C5.64565 17.7061 9.38917 13.9523 14.0248 13.9448L14.0325 13.9449C18.5633 13.9762 22.2152 17.6108 22.305 22.1287V22.6082H5.64565V22.3607Z" fill="#000"/>
</g>
<defs>
<clipPath id="clip0_1297_7008">
<rect width="26" height="26" fill="white" transform="translate(0.75)"/>
</clipPath>
</defs>
</svg>
