<?xml version="1.0" standalone="no"?>
<!DOCTYPE svg PUBLIC "-//W3C//DTD SVG 20010904//EN"
 "http://www.w3.org/TR/2001/REC-SVG-20010904/DTD/svg10.dtd">
<svg version="1.0" xmlns="http://www.w3.org/2000/svg"
 width="119.000000pt" height="124.000000pt" viewBox="0 0 119.000000 124.000000"
 preserveAspectRatio="xMidYMid meet">

<g transform="translate(0.000000,124.000000) scale(0.100000,-0.100000)"
fill="#000000" stroke="none">
<path d="M598 1159 c-32 -28 -58 -59 -58 -69 0 -20 116 -123 133 -117 6 2 15
11 21 21 9 14 5 22 -19 42 l-30 24 50 0 c166 0 326 -107 403 -267 32 -69 37
-88 40 -173 4 -105 -15 -184 -65 -263 -44 -70 -125 -148 -185 -178 -42 -21
-58 -35 -58 -49 0 -33 24 -33 88 -1 103 52 220 189 257 301 13 39 16 80 13
188 -3 133 -4 140 -37 207 -43 88 -152 200 -232 239 -75 36 -152 56 -218 56
l-55 0 29 30 c23 24 26 32 15 45 -19 23 -30 19 -92 -36z"/>
<path d="M269 1042 c-60 -39 -138 -126 -176 -199 -81 -151 -84 -311 -8 -471
78 -166 273 -292 449 -292 l49 0 -21 -23 c-30 -32 -29 -57 3 -57 24 0 117 71
130 100 8 18 -112 132 -135 128 -24 -5 -23 -38 2 -65 l23 -26 -70 6 c-176 14
-331 129 -396 294 -33 83 -33 243 0 326 33 83 106 174 179 222 43 29 61 46 61
63 1 31 -34 29 -90 -6z"/>
<path d="M485 825 c-161 -64 -146 -41 -143 -216 l3 -151 127 -51 127 -50 128
49 128 50 3 155 2 155 -117 47 c-65 25 -125 48 -133 51 -8 3 -64 -15 -125 -39z
m186 -47 c63 -25 75 -34 57 -40 -15 -6 -148 43 -148 54 0 14 36 8 91 -14z
m-119 -45 c64 -25 86 -43 53 -43 -27 0 -145 52 -139 61 7 13 11 12 86 -18z
m-59 -68 l77 -30 0 -97 c0 -72 -3 -98 -12 -97 -7 0 -44 13 -83 28 l-70 29 -3
102 c-1 56 1 100 6 98 5 -1 43 -16 85 -33z m305 -116 l-3 -51 -82 -33 -83 -33
0 104 c0 57 3 104 8 104 4 0 17 3 30 6 21 6 22 3 22 -45 0 -37 4 -53 15 -57
29 -12 45 16 45 78 0 52 3 60 23 67 21 8 22 6 25 -40 2 -27 2 -72 0 -100z"/>
</g>
</svg>
