<svg xmlns="http://www.w3.org/2000/svg" width="25" height="22" viewBox="0 0 807 696" fill="none">
<path d="M282.996 0.740629C273.13 2.34063 256.33 7.14063 248.863 10.6073C213.93 26.2073 187.396 58.3406 176.996 97.4073C172.596 113.941 170.996 129.407 170.996 154.741V175.807H139.396C93.2629 175.807 84.3296 177.941 68.8629 192.207C59.7962 200.607 54.5962 209.141 51.6629 220.607C50.5962 224.874 38.3296 320.207 24.3296 432.474C0.729561 621.407 -1.00377 637.141 0.329562 645.541C4.0629 669.941 24.3296 690.474 48.4629 694.474C60.3296 696.341 540.463 696.341 552.196 694.341C564.596 692.341 574.463 687.274 584.063 677.674C593.53 668.074 598.463 658.741 600.73 645.541C602.063 637.674 601.663 631.541 595.53 582.474C588.196 524.074 587.396 521.007 579.263 514.741C572.33 509.407 559.93 508.874 551.796 513.674C544.863 517.807 540.33 525.807 540.33 534.341C540.33 537.541 542.996 561.807 546.33 588.207C549.663 614.741 552.063 637.807 551.663 639.541C549.796 646.741 561.663 646.474 300.596 646.474C135.663 646.474 58.0629 646.074 55.3962 645.141C53.1296 644.341 50.7296 642.207 49.9296 640.474C48.7296 637.941 53.7962 594.341 73.7962 435.141C87.6629 323.941 99.6629 231.807 100.33 230.341C101.13 229.007 102.863 227.274 104.196 226.607C105.796 225.674 175.263 225.274 300.996 225.274H495.263L498.33 228.341C502.196 232.207 501.53 228.607 509.663 294.474C513.396 324.207 516.996 350.341 517.796 352.741C519.396 357.941 528.196 366.074 533.263 367.274C535.396 367.674 537.663 368.207 538.463 368.474C542.863 369.807 552.863 365.941 557.796 361.007C566.73 352.074 566.73 352.607 558.33 284.741C553.53 246.474 549.796 221.541 548.063 216.607C543.53 203.007 532.863 190.074 520.463 183.407C509.13 177.141 499.13 175.807 462.863 175.807H429.93L429.263 145.407C428.73 124.741 427.93 112.207 426.463 105.807C419.53 75.5406 407.663 53.4073 388.196 34.3406C370.33 16.7406 349.663 6.2073 324.73 1.8073C314.33 -0.0593706 291.13 -0.592704 282.996 0.740629ZM322.463 51.8073C328.196 53.274 336.196 56.474 340.063 58.874C350.063 64.7406 362.73 78.6073 368.73 90.074C377.263 106.474 379.263 116.474 379.93 148.074L380.596 175.807H300.33H220.063L220.73 148.741C221.13 129.274 221.93 119.407 223.663 113.141C230.33 88.074 246.196 67.1406 266.063 57.274C272.063 54.3406 280.063 51.4073 283.663 50.7406C295.396 48.474 311.13 49.0073 322.463 51.8073Z" fill="#FFFBFB"/>
<path d="M650.33 290.074C644.863 292.874 640.463 297.141 638.063 301.807C635.396 306.874 635.396 318.074 638.063 323.141C639.263 325.407 658.463 345.407 680.863 367.807L721.663 408.474L505.396 409.141L288.996 409.807L282.73 413.407C266.73 422.874 267.13 446.607 283.663 456.074L288.996 459.141L505.663 459.541L722.196 459.807L680.063 502.207C642.063 540.474 637.93 545.007 636.596 550.474C633.53 563.007 639.263 574.074 651.263 579.141C657.796 581.807 663.796 581.674 670.33 578.607C677.796 575.007 802.063 450.341 804.996 443.541C806.063 440.741 806.996 436.741 806.996 434.474C806.996 432.207 806.063 428.207 804.996 425.407C802.463 419.274 678.063 294.207 670.73 290.341C664.73 287.274 655.796 287.141 650.33 290.074Z" fill="#FFFBFB"/>
</svg>