<svg xmlns="http://www.w3.org/2000/svg" width="25" height="22" viewBox="0 0 25 22" fill="none">
<path d="M6.40333 6.30956H3.78536C3.25877 6.30956 2.81459 6.70168 2.74927 7.2242L1.24046 19.2947C1.16256 19.9179 1.64849 20.4684 2.27655 20.4684H16.8375C17.4656 20.4684 17.9515 19.9179 17.8736 19.2947L17.5074 16.3646M6.40333 6.30956H12.7108M6.40333 6.30956C6.40332 6.56687 6.40331 5.7033 6.40331 5.70787M6.40333 6.30956C6.40338 5.65468 6.40348 4.50284 6.40363 4.49127C6.42955 2.55867 7.64636 1 9.58511 1C11.5285 1 12.6921 2.56615 12.7106 4.50517C12.7107 4.51341 12.7107 5.65733 12.7108 6.30956M12.7108 6.30956H15.3287C15.8553 6.30956 16.2995 6.70168 16.3648 7.2242L16.7895 10.6217M12.7108 6.30956C12.7108 6.56765 12.7108 5.7046 12.7108 5.70787M9.39828 13.3502H24.0652M24.0652 13.3502L20.3878 9.67283M24.0652 13.3502L20.3878 17.0276" stroke="#2A3B8F" stroke-width="1.5" stroke-linecap="round"/>
</svg>